<svg height="512" viewBox="0 0 64 64" width="512" xmlns="http://www.w3.org/2000/svg"><path d="m52 30v12.959a2.041 2.041 0 0 1 -2.041 2.041h-45.918a2.041 2.041 0 0 1 -2.041-2.041v-31.918a2.041 2.041 0 0 1 2.041-2.041h45.918a2.041 2.041 0 0 1 2.041 2.041v21.959" fill="#3d9ae2"/><circle cx="27" cy="27" fill="#e0e0e2" r="8"/><path d="m25 31v-8l6.621 4z" fill="#ff5023"/><path d="m44 39h16a0 0 0 0 1 0 0v14a2 2 0 0 1 -2 2h-12a2 2 0 0 1 -2-2v-14a0 0 0 0 1 0 0z" fill="#e0e0e2"/><path d="m42 35h20v4h-20z" fill="#898890"/><path d="m50 31h4a2 2 0 0 1 2 2v2a0 0 0 0 1 0 0h-8a0 0 0 0 1 0 0v-2a2 2 0 0 1 2-2z" fill="#e0e0e2"/><path d="m39.693 44h-35.652a1.042 1.042 0 0 1 -1.041-1.041v-31.918a1.042 1.042 0 0 1 1.041-1.041h45.918a1.042 1.042 0 0 1 1.041 1.041v15.959a1 1 0 0 0 2 0v-15.959a3.044 3.044 0 0 0 -3.041-3.041h-45.918a3.044 3.044 0 0 0 -3.041 3.041v31.918a3.044 3.044 0 0 0 3.041 3.041h35.652a1 1 0 0 0 0-2z"/><path d="m24.509 31.871a1 1 0 0 0 1.009-.016l6.621-4a1 1 0 0 0 0-1.71l-6.621-4a1 1 0 0 0 -1.518.855v8a1 1 0 0 0 .509.871zm1.491-7.099 3.687 2.228-3.687 2.228z"/><path d="m27 36a9 9 0 1 0 -9-9 9.01 9.01 0 0 0 9 9zm0-16a7 7 0 1 1 -7 7 7.009 7.009 0 0 1 7-7z"/><path d="m6 40a1 1 0 0 0 0 2h8a1 1 0 0 0 0-2z"/><path d="m17 40a1 1 0 0 0 0 2h1a1 1 0 0 0 0-2z"/><path d="m62 34h-5v-1a3 3 0 0 0 -3-3h-4a3 3 0 0 0 -3 3v1h-5a1 1 0 0 0 -1 1v4a1 1 0 0 0 1 1h1v13a3 3 0 0 0 3 3h12a3 3 0 0 0 3-3v-13h1a1 1 0 0 0 1-1v-4a1 1 0 0 0 -1-1zm-13-1a1 1 0 0 1 1-1h4a1 1 0 0 1 1 1v1h-6zm10 20a1 1 0 0 1 -1 1h-12a1 1 0 0 1 -1-1v-13h14zm2-15h-18v-2h18z"/><path d="m52 51a1 1 0 0 0 1-1v-6a1 1 0 0 0 -2 0v6a1 1 0 0 0 1 1z"/><path d="m48 51a1 1 0 0 0 1-1v-6a1 1 0 0 0 -2 0v6a1 1 0 0 0 1 1z"/><path d="m56 51a1 1 0 0 0 1-1v-6a1 1 0 0 0 -2 0v6a1 1 0 0 0 1 1z"/></svg>